<svg width="52" height="54" viewBox="0 0 52 54" fill="none" xmlns="http://www.w3.org/2000/svg">
<path d="M26 27C29.9404 27 33.7193 25.5777 36.5056 23.0459C39.2918 20.5142 40.8571 17.0804 40.8571 13.5C40.8571 9.91958 39.2918 6.4858 36.5056 3.95406C33.7193 1.42232 29.9404 0 26 0C22.0596 0 18.2807 1.42232 15.4944 3.95406C12.7082 6.4858 11.1429 9.91958 11.1429 13.5C11.1429 17.0804 12.7082 20.5142 15.4944 23.0459C18.2807 25.5777 22.0596 27 26 27ZM20.6955 32.0625C9.2625 32.0625 0 40.4789 0 50.8676C0 52.5973 1.54375 54 3.44732 54H48.5527C50.4562 54 52 52.5973 52 50.8676C52 40.4789 42.7375 32.0625 31.3045 32.0625H20.6955Z" fill="#F3F3F3"/>
</svg>
