<svg width="13" height="12" viewBox="0 0 13 12" fill="none" xmlns="http://www.w3.org/2000/svg">
<g clip-path="url(#clip0_18_67)">
<path d="M11.0706 1.38046L11.3542 1.66405C11.5745 1.88436 11.5745 2.24061 11.3542 2.45858L10.6722 3.14296L9.59171 2.06249L10.2737 1.38046C10.4941 1.16014 10.8503 1.16014 11.0683 1.38046H11.0706ZM5.65187 6.00467L8.79718 2.85702L9.87765 3.93749L6.72999 7.0828C6.66202 7.15077 6.57765 7.19999 6.48624 7.22577L5.11515 7.61718L5.50656 6.24608C5.53234 6.15468 5.58155 6.0703 5.64952 6.00233L5.65187 6.00467ZM9.47921 0.585925L4.85499 5.2078C4.65109 5.41171 4.50343 5.66249 4.42609 5.93671L3.75577 8.28046C3.69952 8.47733 3.75343 8.68827 3.89874 8.83358C4.04405 8.97889 4.25499 9.0328 4.45187 8.97655L6.79562 8.30624C7.07218 8.22655 7.32296 8.07889 7.52452 7.87733L12.1487 3.25546C12.8073 2.59686 12.8073 1.52811 12.1487 0.869519L11.8651 0.585925C11.2066 -0.0726684 10.1378 -0.0726684 9.47921 0.585925ZM2.79718 1.49999C1.65812 1.49999 0.73468 2.42342 0.73468 3.56249V9.93749C0.73468 11.0765 1.65812 12 2.79718 12H9.17218C10.3112 12 11.2347 11.0765 11.2347 9.93749V7.31249C11.2347 7.00077 10.9839 6.74999 10.6722 6.74999C10.3605 6.74999 10.1097 7.00077 10.1097 7.31249V9.93749C10.1097 10.4555 9.69015 10.875 9.17218 10.875H2.79718C2.27921 10.875 1.85968 10.4555 1.85968 9.93749V3.56249C1.85968 3.04452 2.27921 2.62499 2.79718 2.62499H5.42218C5.7339 2.62499 5.98468 2.37421 5.98468 2.06249C5.98468 1.75077 5.7339 1.49999 5.42218 1.49999H2.79718Z" fill="#005EEB"/>
</g>
<defs>
<clipPath id="clip0_18_67">
<rect width="12" height="12" fill="white" transform="translate(0.73468)"/>
</clipPath>
</defs>
</svg>
