<svg width="65" height="64" viewBox="0 0 65 64" fill="none" xmlns="http://www.w3.org/2000/svg">
<path d="M62.6059 10.9299C65.1047 8.43105 65.1047 4.37295 62.6059 1.87412C60.1071 -0.624707 56.049 -0.624707 53.5501 1.87412L32.5 22.9442L11.4299 1.89411C8.93105 -0.604717 4.87295 -0.604717 2.37412 1.89411C-0.124707 4.39294 -0.124707 8.45104 2.37412 10.9499L23.4442 32L2.39411 53.0701C-0.104716 55.5689 -0.104716 59.627 2.39411 62.1259C4.89294 64.6247 8.95104 64.6247 11.4499 62.1259L32.5 41.0557L53.5701 62.1059C56.0689 64.6047 60.127 64.6047 62.6259 62.1059C65.1247 59.6071 65.1247 55.549 62.6259 53.0501L41.5558 32L62.6059 10.9299Z" fill="#F3F3F3"/>
</svg>
