<svg width="13" height="13" viewBox="0 0 13 13" fill="none" xmlns="http://www.w3.org/2000/svg">
<g clip-path="url(#clip0_18_51)">
<path d="M6.49944 2.125C5.02791 2.125 3.81819 2.81875 2.89058 3.71172C2.02166 4.55078 1.42131 5.54688 1.11437 6.25C1.42131 6.95312 2.02166 7.94922 2.88832 8.78828C3.81819 9.68125 5.02791 10.375 6.49944 10.375C7.97096 10.375 9.18069 9.68125 10.1083 8.78828C10.9772 7.94922 11.5776 6.95312 11.8845 6.25C11.5776 5.54688 10.9772 4.55078 10.1105 3.71172C9.18069 2.81875 7.97096 2.125 6.49944 2.125ZM2.15256 2.88906C3.21558 1.8625 4.67582 1 6.49944 1C8.32305 1 9.78329 1.8625 10.8463 2.88906C11.9026 3.90859 12.609 5.125 12.9453 5.96172C13.0197 6.14687 13.0197 6.35312 12.9453 6.53828C12.609 7.375 11.9026 8.59375 10.8463 9.61094C9.78329 10.6375 8.32305 11.5 6.49944 11.5C4.67582 11.5 3.21558 10.6375 2.15256 9.61094C1.09631 8.59375 0.389887 7.375 0.0558594 6.53828C-0.0186198 6.35312 -0.0186198 6.14687 0.0558594 5.96172C0.389887 5.125 1.09631 3.90625 2.15256 2.88906ZM6.49944 8.125C7.49701 8.125 8.30499 7.28594 8.30499 6.25C8.30499 5.21406 7.49701 4.375 6.49944 4.375C6.48364 4.375 6.4701 4.375 6.4543 4.375C6.48364 4.49453 6.49944 4.62109 6.49944 4.75C6.49944 5.57734 5.85169 6.25 5.05499 6.25C4.93086 6.25 4.80898 6.23359 4.69388 6.20312C4.69388 6.21953 4.69388 6.23359 4.69388 6.25C4.69388 7.28594 5.50187 8.125 6.49944 8.125ZM6.49944 3.25C7.26562 3.25 8.00042 3.56607 8.54219 4.12868C9.08396 4.69129 9.38832 5.45435 9.38832 6.25C9.38832 7.04565 9.08396 7.80871 8.54219 8.37132C8.00042 8.93393 7.26562 9.25 6.49944 9.25C5.73325 9.25 4.99845 8.93393 4.45668 8.37132C3.91491 7.80871 3.61055 7.04565 3.61055 6.25C3.61055 5.45435 3.91491 4.69129 4.45668 4.12868C4.99845 3.56607 5.73325 3.25 6.49944 3.25Z" fill="#7A7A7A"/>
</g>
<defs>
<clipPath id="clip0_18_51">
<rect width="13" height="12" fill="white" transform="translate(0 0.5)"/>
</clipPath>
</defs>
</svg>
