<svg width="19" height="19" viewBox="0 0 19 19" fill="none" xmlns="http://www.w3.org/2000/svg">
<path d="M13.5849 10.9963H11.9224V8.00376H13.5849C13.8699 8.00376 14.0837 7.79001 14.0837 7.50501C14.0837 7.22001 13.8699 7.00626 13.5849 7.00626H11.9224V5.22501C11.9224 4.94001 11.7087 4.72626 11.4237 4.72626C11.1387 4.72626 10.9249 4.96376 10.9249 5.22501V6.98251H7.93243V5.22501C7.93243 4.94001 7.71868 4.72626 7.43368 4.72626C7.14868 4.72626 6.93493 4.96376 6.93493 5.22501V6.98251H5.27243C4.98743 6.98251 4.77368 7.19626 4.77368 7.48126C4.77368 7.76626 4.98743 7.98001 5.27243 7.98001H6.93493V10.9963H5.27243C4.98743 10.9963 4.77368 11.21 4.77368 11.495C4.77368 11.78 4.98743 11.9938 5.27243 11.9938H6.93493V13.775C6.93493 14.06 7.14868 14.2738 7.43368 14.2738C7.71868 14.2738 7.93243 14.06 7.93243 13.775V12.0175H10.9487V13.775C10.9487 14.06 11.1624 14.2738 11.4474 14.2738C11.7324 14.2738 11.9462 14.06 11.9462 13.775V12.0175H13.6087C13.8937 12.0175 14.1074 11.8038 14.1074 11.5188C14.1074 11.2338 13.8462 10.9963 13.5849 10.9963ZM7.93243 10.9963V8.00376H10.9487V11.02H7.93243V10.9963Z" fill="#1E1E1E"/>
</svg>
