<svg width="113" height="50" viewBox="0 0 113 50" fill="none" xmlns="http://www.w3.org/2000/svg">
<rect y="0.5" width="113" height="49" rx="5" fill="#1E1E1E"/>
<path d="M23.517 33.5V16.0455H27.2074V30.4574H34.6903V33.5H23.517ZM52.4943 24.7727C52.4943 26.6761 52.1335 28.2955 51.4119 29.6307C50.696 30.9659 49.7188 31.9858 48.4801 32.6903C47.2472 33.3892 45.8608 33.7386 44.321 33.7386C42.7699 33.7386 41.3778 33.3864 40.1449 32.6818C38.9119 31.9773 37.9375 30.9574 37.2216 29.6222C36.5057 28.2869 36.1477 26.6705 36.1477 24.7727C36.1477 22.8693 36.5057 21.25 37.2216 19.9148C37.9375 18.5795 38.9119 17.5625 40.1449 16.8636C41.3778 16.1591 42.7699 15.8068 44.321 15.8068C45.8608 15.8068 47.2472 16.1591 48.4801 16.8636C49.7188 17.5625 50.696 18.5795 51.4119 19.9148C52.1335 21.25 52.4943 22.8693 52.4943 24.7727ZM48.7528 24.7727C48.7528 23.5398 48.5682 22.5 48.1989 21.6534C47.8352 20.8068 47.321 20.1648 46.6562 19.7273C45.9915 19.2898 45.2131 19.071 44.321 19.071C43.429 19.071 42.6506 19.2898 41.9858 19.7273C41.321 20.1648 40.804 20.8068 40.4347 21.6534C40.071 22.5 39.8892 23.5398 39.8892 24.7727C39.8892 26.0057 40.071 27.0455 40.4347 27.892C40.804 28.7386 41.321 29.3807 41.9858 29.8182C42.6506 30.2557 43.429 30.4744 44.321 30.4744C45.2131 30.4744 45.9915 30.2557 46.6562 29.8182C47.321 29.3807 47.8352 28.7386 48.1989 27.892C48.5682 27.0455 48.7528 26.0057 48.7528 24.7727ZM66.8018 21.6875C66.6825 21.2727 66.5149 20.9062 66.299 20.5881C66.0831 20.2642 65.8189 19.9915 65.5064 19.7699C65.1996 19.5426 64.8473 19.3693 64.4496 19.25C64.0575 19.1307 63.6229 19.071 63.1456 19.071C62.2536 19.071 61.4695 19.2926 60.7933 19.7358C60.1229 20.179 59.6001 20.8239 59.2251 21.6705C58.8501 22.5114 58.6626 23.5398 58.6626 24.7557C58.6626 25.9716 58.8473 27.0057 59.2166 27.858C59.5859 28.7102 60.1087 29.3608 60.7848 29.8097C61.4609 30.2528 62.2592 30.4744 63.1797 30.4744C64.0149 30.4744 64.728 30.3267 65.3189 30.0312C65.9155 29.7301 66.37 29.3068 66.6825 28.7614C67.0007 28.2159 67.1598 27.571 67.1598 26.8267L67.9098 26.9375H63.4098V24.1591H70.7138V26.358C70.7138 27.892 70.3899 29.2102 69.7422 30.3125C69.0945 31.4091 68.2024 32.2557 67.0661 32.8523C65.9297 33.4432 64.6286 33.7386 63.1626 33.7386C61.5263 33.7386 60.0888 33.3778 58.8501 32.6562C57.6115 31.929 56.6456 30.8977 55.9524 29.5625C55.2649 28.2216 54.9212 26.6307 54.9212 24.7898C54.9212 23.375 55.1257 22.1136 55.5348 21.0057C55.9496 19.892 56.5291 18.9489 57.2734 18.1761C58.0178 17.4034 58.8842 16.8153 59.8729 16.4119C60.8615 16.0085 61.9325 15.8068 63.0859 15.8068C64.0746 15.8068 64.995 15.9517 65.8473 16.2415C66.6996 16.5256 67.4553 16.929 68.1143 17.4517C68.7791 17.9744 69.3217 18.5966 69.7422 19.3182C70.1626 20.0341 70.4325 20.8239 70.5518 21.6875H66.8018ZM89.5256 24.7727C89.5256 26.6761 89.1648 28.2955 88.4432 29.6307C87.7273 30.9659 86.75 31.9858 85.5114 32.6903C84.2784 33.3892 82.892 33.7386 81.3523 33.7386C79.8011 33.7386 78.4091 33.3864 77.1761 32.6818C75.9432 31.9773 74.9688 30.9574 74.2528 29.6222C73.5369 28.2869 73.179 26.6705 73.179 24.7727C73.179 22.8693 73.5369 21.25 74.2528 19.9148C74.9688 18.5795 75.9432 17.5625 77.1761 16.8636C78.4091 16.1591 79.8011 15.8068 81.3523 15.8068C82.892 15.8068 84.2784 16.1591 85.5114 16.8636C86.75 17.5625 87.7273 18.5795 88.4432 19.9148C89.1648 21.25 89.5256 22.8693 89.5256 24.7727ZM85.7841 24.7727C85.7841 23.5398 85.5994 22.5 85.2301 21.6534C84.8665 20.8068 84.3523 20.1648 83.6875 19.7273C83.0227 19.2898 82.2443 19.071 81.3523 19.071C80.4602 19.071 79.6818 19.2898 79.017 19.7273C78.3523 20.1648 77.8352 20.8068 77.4659 21.6534C77.1023 22.5 76.9205 23.5398 76.9205 24.7727C76.9205 26.0057 77.1023 27.0455 77.4659 27.892C77.8352 28.7386 78.3523 29.3807 79.017 29.8182C79.6818 30.2557 80.4602 30.4744 81.3523 30.4744C82.2443 30.4744 83.0227 30.2557 83.6875 29.8182C84.3523 29.3807 84.8665 28.7386 85.2301 27.892C85.5994 27.0455 85.7841 26.0057 85.7841 24.7727Z" fill="white"/>
</svg>
