<svg width="8" height="8" viewBox="0 0 8 8" fill="none" xmlns="http://www.w3.org/2000/svg">
<path d="M7.76437 1.52968C8.05734 1.23671 8.05734 0.760925 7.76437 0.467957C7.4714 0.174988 6.99562 0.174988 6.70265 0.467957L4.23468 2.93827L1.76437 0.4703C1.4714 0.177332 0.995621 0.177332 0.702652 0.4703C0.409683 0.763269 0.409683 1.23905 0.702652 1.53202L3.17296 3.99999L0.704996 6.4703C0.412027 6.76327 0.412027 7.23905 0.704996 7.53202C0.997965 7.82499 1.47375 7.82499 1.76671 7.53202L4.23468 5.06171L6.705 7.52968C6.99796 7.82264 7.47375 7.82264 7.76672 7.52968C8.05968 7.23671 8.05968 6.76093 7.76672 6.46796L5.2964 3.99999L7.76437 1.52968Z" fill="#1E1E1E"/>
</svg>
